# xmcd CD database file
#
# Track frame offsets:
#	150
#	18252
#	33622
#	49082
#	67575
#	87052
#	105837
#	132885
#	152632
#	188477
#	210437
#	228597
#	245672
#	262670
#	279137
#	298765
#	316807
#
# Disc length: 4532 seconds
#
# Revision: 0
# Processed by: cddbd v1.5PL3 Copyright (c) Steve Scherf et al.
# Submitted via: CDex 1.51
#
DISCID=d011b211
DTITLE=Minnie Riperton - Super Best
DYEAR=1993
DGENRE=Jazz
TTITLE0=Memory Lane
TTITLE1=Perfect Angel
TTITLE2=Lovin' You
TTITLE3=Here We Go
TTITLE4=Lover and Friend
TTITLE5=Return to Forever
TTITLE6=Dancin' and Actin' Crazy
TTITLE7=I'm in Love Again
TTITLE8=Strange Affair
TTITLE9=Island in the Sun
TTITLE10=Inside My Love
TTITLE11=Woman of Heart and Mind
TTITLE12=You Take My Breath Away
TTITLE13=Love Hurts
TTITLE14=Never Existed Before
TTITLE15=I'm A Woman
TTITLE16=Light My Fire
EXTD=YEAR: 1993
EXTT0=
EXTT1=
EXTT2=
EXTT3=
EXTT4=
EXTT5=
EXTT6=
EXTT7=
EXTT8=
EXTT9=
EXTT10=
EXTT11=
EXTT12=
EXTT13=
EXTT14=
EXTT15=
EXTT16=
PLAYORDER=
